# xmcd CD database file
#
# Track frame offsets:
#	150
#	12485
#	30404
#	42589
#	57995
#	68979
#	81163
#	92885
#	103463
#	114148
#	133801
#	144310
#	154903
#	165913
#
# Disc length: 2366 seconds
#
# Revision: 5
# Processed by: cddbd v1.5.2PL0 Copyright (c) Steve Scherf et al.
# Submitted via: CDex 1.70beta2
#
DISCID=bc093c0e
DTITLE=Kenny Rogers and Dolly Parton - Kenny and Dolly  made in E.U. CD 2
DYEAR=2011
DGENRE=Country
TTITLE0=Two Little Orphans ( 1968 ) - Dolly Parton
TTITLE1=Something's Burning ( 1970 ) - Kenny Rogers and The First Edition
TTITLE2=Fuel To The Flame ( 1967 ) - Dolly Parton
TTITLE3=For The Good Times ( 1970 ) - Kenny Rogers and The First Edition
TTITLE4=The Little Things ( 1967 ) - Dolly Parton
TTITLE5=Elvira ( 1970 ) - Kenny Rogers and The First Edition
TTITLE6=The Company You Keep ( 1967 ) - Dolly Parton
TTITLE7=Ticket To Nowhere ( 1967 ) - Kenny Rogers and The First Edition
TTITLE8=Why Why Why ( 1967 ) - Dolly Parton
TTITLE9=Lay It Down ( 1971 ) - Kenny Rogers and The First Edition
TTITLE10=Put It Off Until Tomorrow ( 1967 ) - Dolly Parton
TTITLE11=I Wasted My Tears ( 1967 ) - Dolly Parton
TTITLE12=Always Leaving Always Gone ( 1969 ) - Kenny Rogers and The First Edition
TTITLE13=Letter To Heaven ( 1971 ) - Dolly Parton
EXTD=YEAR: 2011
EXTT0=
EXTT1=
EXTT2=
EXTT3=
EXTT4=
EXTT5=
EXTT6=
EXTT7=
EXTT8=
EXTT9=
EXTT10=
EXTT11=
EXTT12=
EXTT13=
PLAYORDER=
